<svg width="123" height="50" viewBox="0 0 123 50" fill="none" xmlns="http://www.w3.org/2000/svg">
<path d="M75.0852 10.4106L80.033 28.5524L84.4596 10.4445C84.5302 10.1558 84.6945 9.89925 84.9263 9.71593C85.1582 9.53262 85.4442 9.4331 85.7386 9.43328H89.4674C89.6702 9.43325 89.8702 9.48054 90.052 9.57145C90.2337 9.66236 90.3922 9.79444 90.5151 9.9574C90.6379 10.1204 90.7219 10.3098 90.7604 10.5109C90.7989 10.712 90.7909 10.9194 90.737 11.1169L84.0082 35.7696C83.9316 36.0503 83.766 36.2979 83.5367 36.4743C83.3074 36.6508 83.0271 36.7463 82.7388 36.7463H77.7138C77.4256 36.7463 77.1454 36.6508 76.9162 36.4744C76.6869 36.2981 76.5213 36.0507 76.4446 35.7701L72.3079 20.6311L68.1714 35.7698C68.0947 36.0504 67.929 36.2979 67.6997 36.4743C67.4704 36.6506 67.1902 36.7461 66.902 36.7461H61.8775C61.5892 36.7461 61.3088 36.6506 61.0795 36.4741C60.8501 36.2977 60.6844 36.0501 60.6078 35.7693L53.8793 11.1166C53.8254 10.9192 53.8174 10.7118 53.8559 10.5107C53.8944 10.3096 53.9783 10.1202 54.1012 9.95724C54.224 9.79429 54.3825 9.6622 54.5642 9.57127C54.7459 9.48034 54.9459 9.43302 55.1486 9.43301H58.879C59.1735 9.43283 59.4594 9.53235 59.6913 9.71566C59.9231 9.89898 60.0875 10.1555 60.158 10.4443L64.5847 28.5521L69.5327 10.4104C69.6093 10.1296 69.7749 9.88199 70.0042 9.70553C70.2336 9.52907 70.5139 9.43352 70.8021 9.43354H73.8155C74.1038 9.43357 74.3842 9.52917 74.6135 9.70567C74.8429 9.88217 75.0086 10.1298 75.0852 10.4106ZM46.7028 36.7469H49.863C50.0359 36.7469 50.2071 36.7125 50.3669 36.6457C50.5267 36.5789 50.6719 36.4809 50.7942 36.3574C50.9165 36.2338 51.0135 36.0872 51.0796 35.9258C51.1458 35.7644 51.1798 35.5914 51.1798 35.4167V24.7682C51.1798 22.2709 50.4846 20.2939 49.0942 18.8374C47.755 17.4072 46.0427 16.6919 43.9572 16.6913C41.433 16.6913 39.5918 17.4847 38.4336 19.0716V18.5677C38.4335 18.2149 38.2948 17.8766 38.0478 17.6272C37.8009 17.3777 37.466 17.2375 37.1168 17.2375H33.9563C33.6071 17.2375 33.2722 17.3776 33.0252 17.6271C32.7783 17.8765 32.6395 18.2149 32.6395 18.5677V35.4175C32.6395 35.7703 32.7783 36.1086 33.0252 36.3581C33.2722 36.6076 33.6071 36.7477 33.9563 36.7477H37.1165C37.4658 36.7477 37.8007 36.6076 38.0477 36.3581C38.2946 36.1086 38.4333 35.7703 38.4333 35.4175V26.0952C38.4333 24.7686 38.7552 23.7671 39.399 23.0908C40.0427 22.4144 40.9183 22.0763 42.0257 22.0763C42.9159 22.0433 43.7831 22.3657 44.4398 22.9737C45.0702 23.5725 45.3856 24.4569 45.386 25.6271V35.4172C45.3861 35.7699 45.5249 36.1081 45.7719 36.3575C46.0188 36.6068 46.3536 36.7469 46.7028 36.7469ZM95.023 17.2375C94.6738 17.2375 94.3388 17.3776 94.0919 17.6271C93.8449 17.8765 93.7062 18.2149 93.7062 18.5677V35.4175C93.7062 35.7703 93.8449 36.1086 94.0919 36.3581C94.3388 36.6076 94.6738 36.7477 95.023 36.7477H98.1832C98.3561 36.7477 98.5273 36.7133 98.6871 36.6465C98.8469 36.5797 98.9921 36.4817 99.1144 36.3582C99.2367 36.2346 99.3337 36.088 99.3998 35.9266C99.466 35.7652 99.5 35.5922 99.5 35.4175V18.5677C99.5 18.2149 99.3612 17.8765 99.1143 17.6271C98.8673 17.3776 98.5324 17.2375 98.1832 17.2375H95.023ZM105.065 36.7469H108.226C108.575 36.7469 108.91 36.6067 109.157 36.3573C109.404 36.1078 109.543 35.7695 109.543 35.4167V26.0952C109.543 24.7686 109.865 23.7671 110.508 23.0908C111.152 22.4144 112.028 22.0763 113.135 22.0763C114.025 22.0433 114.892 22.3657 115.549 22.9737C116.18 23.5725 116.495 24.4569 116.495 25.6271V35.4172C116.495 35.5919 116.529 35.7649 116.596 35.9263C116.662 36.0877 116.759 36.2344 116.881 36.3579C117.003 36.4814 117.148 36.5794 117.308 36.6462C117.468 36.7131 117.639 36.7475 117.812 36.7474H120.972C121.322 36.7474 121.657 36.6073 121.903 36.3578C122.15 36.1084 122.289 35.77 122.289 35.4172V24.7682C122.289 22.2709 121.594 20.2939 120.203 18.8374C118.864 17.4072 117.152 16.6919 115.066 16.6913C112.542 16.6913 110.701 17.4847 109.543 19.0716V18.5677C109.543 18.2149 109.404 17.8765 109.157 17.6271C108.91 17.3776 108.575 17.2375 108.226 17.2375H105.065C104.716 17.2375 104.381 17.3776 104.134 17.6271C103.887 17.8765 103.749 18.2149 103.749 18.5677V35.4175C103.749 35.7701 103.888 36.1083 104.135 36.3576C104.382 36.6069 104.716 36.7469 105.065 36.7469ZM98.2626 15.7299C98.0158 14.8871 98.5053 13.906 100.091 12.5513C101.772 11.1153 101.636 8.92105 99.9074 8.16174C97.9356 7.29664 96.1728 8.27667 95.6801 9.45373C95.5102 9.06063 95.1929 8.75166 94.7977 8.59457C94.4026 8.43749 93.962 8.44513 93.5724 8.61581C92.4133 9.1528 91.5969 10.3923 92.5684 12.3397C93.4397 14.0874 96.7302 15.0107 98.2626 15.7299ZM8.27079 36.7469H11.8171C12.1663 36.7469 12.5012 36.6067 12.7482 36.3573C12.9951 36.1078 13.1339 35.7695 13.1339 35.4167V15.4427H18.7697C18.9426 15.4427 19.1139 15.4083 19.2737 15.3415C19.4334 15.2747 19.5786 15.1767 19.7009 15.0531C19.8232 14.9296 19.9202 14.783 19.9863 14.6215C20.0525 14.4601 20.0865 14.2872 20.0865 14.1125V10.764C20.0865 10.4112 19.9478 10.0729 19.7008 9.82343C19.4539 9.57396 19.1189 9.43381 18.7697 9.43381H1.31681C0.967569 9.43381 0.632634 9.57396 0.385682 9.82343C0.138729 10.0729 0 10.4112 0 10.764V14.1125C0 14.4653 0.138729 14.8036 0.385682 15.0531C0.632634 15.3025 0.967569 15.4427 1.31681 15.4427H6.95262V35.4167C6.95262 35.5915 6.98674 35.7646 7.053 35.926C7.11926 36.0875 7.21637 36.2342 7.33879 36.3578C7.46121 36.4813 7.60653 36.5792 7.76645 36.646C7.92637 36.7128 8.09775 36.7471 8.27079 36.7469ZM27.0741 17.2375H23.9139C23.5646 17.2375 23.2297 17.3776 22.9828 17.6271C22.7358 17.8765 22.5971 18.2149 22.5971 18.5677V35.4175C22.5971 35.7703 22.7358 36.1086 22.9828 36.3581C23.2297 36.6076 23.5646 36.7477 23.9139 36.7477H27.0743C27.4236 36.7477 27.7585 36.6076 28.0055 36.3581C28.2524 36.1086 28.3911 35.7703 28.3911 35.4175V18.5677C28.3911 18.2149 28.2524 17.8765 28.0055 17.6271C27.7585 17.3776 27.4233 17.2375 27.0741 17.2375Z" fill="url(#paint0_linear_1_148778)"/>
<path d="M13.3609 7.54401C13.7001 7.3812 14.0495 7.21525 14.4312 7.14092C19.0781 6.23568 21.8249 8.84343 23.8368 13.0029C23.873 13.0773 23.9306 13.1402 24.0028 13.1842C24.075 13.2283 24.1589 13.2517 24.2446 13.2517C24.5604 13.2517 24.8899 13.2527 25.2347 13.253C25.3356 13.2531 25.4337 13.2208 25.5131 13.1612C25.5925 13.1016 25.6487 13.0182 25.6727 12.9243C28.7389 0.976248 40.0093 0.305793 43.0801 0.204473C43.4672 0.191721 43.4739 0 43.0839 0C32.0372 0 26.2005 5.77119 24.8087 11.3722C23.3091 8.30277 18.569 4.6779 13.2939 7.41553C13.2764 7.42422 13.2631 7.43912 13.2568 7.45706C13.2506 7.475 13.2519 7.49457 13.2605 7.51161C13.2693 7.52863 13.2849 7.5416 13.3037 7.54768C13.3225 7.55375 13.3431 7.55243 13.3609 7.54401Z" fill="url(#paint1_linear_1_148778)"/>
<path d="M56.6116 39.0044C56.6004 38.9922 56.585 38.9846 56.5685 38.9831C56.552 38.9817 56.5356 38.9865 56.5225 38.9967L56.3837 39.0893C50.6044 41.9952 48.7481 44.9797 49.5032 47.8883C23.5122 44.0455 18.4304 37.5526 17.5806 36.7678C17.5699 36.7556 17.5551 36.7479 17.539 36.7464C17.523 36.7448 17.507 36.7495 17.4942 36.7594C17.4815 36.7693 17.473 36.7838 17.4705 36.7998C17.468 36.8158 17.4717 36.8322 17.4808 36.8455C19.9526 40.0585 24.9811 42.9967 31.6398 45.1188C32.0737 45.257 32.5023 45.3911 32.9258 45.5209C34.8621 46.136 36.8706 46.6902 38.9142 47.1986C42.7006 48.1611 45.8622 48.7845 48.2531 49.2558C49.6536 49.532 50.8632 49.7705 51.7989 49.9973C51.8037 49.9985 51.8087 49.9991 51.8137 49.9991C51.8248 49.9991 51.8357 49.9962 51.8453 49.9906C51.8549 49.9851 51.8629 49.9771 51.8684 49.9674C51.874 49.9578 51.8769 49.9468 51.8769 49.9357C51.8769 49.9245 51.874 49.9136 51.8685 49.9039C50.5832 47.661 50.5194 46.0063 51.177 44.5806C51.8346 43.1548 53.1985 41.8075 54.8909 40.474C55.4456 40.0368 56.0196 39.5847 56.6036 39.0941C56.61 39.0887 56.6153 39.0821 56.6192 39.0747C56.623 39.0673 56.6254 39.0592 56.6261 39.0509C56.6268 39.0426 56.6259 39.0342 56.6234 39.0262C56.6209 39.0182 56.6169 39.0108 56.6116 39.0044Z" fill="url(#paint2_linear_1_148778)"/>
<defs>
<linearGradient id="paint0_linear_1_148778" x1="61.1446" y1="7.83203" x2="61.1446" y2="36.7477" gradientUnits="userSpaceOnUse">
<stop stop-color="#99BF00"/>
<stop offset="1" stop-color="#7C9B00"/>
</linearGradient>
<linearGradient id="paint1_linear_1_148778" x1="28.3132" y1="0" x2="28.3132" y2="13.253" gradientUnits="userSpaceOnUse">
<stop stop-color="#99BF00"/>
<stop offset="1" stop-color="#7C9B00"/>
</linearGradient>
<linearGradient id="paint2_linear_1_148778" x1="37.048" y1="36.7461" x2="37.048" y2="49.9991" gradientUnits="userSpaceOnUse">
<stop stop-color="#99BF00"/>
<stop offset="1" stop-color="#7C9B00"/>
</linearGradient>
</defs>
</svg>
